<svg width="420" height="122" viewBox="0 0 420 122" fill="none" xmlns="http://www.w3.org/2000/svg" role="img" aria-labelledby="title desc">
  <title id="title">Vikings Car Care logo</title>
  <desc id="desc">Luxury shield mark for Vikings Car Care</desc>
  <path d="M18 9h74l-14.6 82.5H32.8L18 9Z" fill="url(#shield)" stroke="#C0C0C0" stroke-width="3"/>
  <path d="M35 27l20.4 43.6L75.6 27" stroke="#C1121F" stroke-width="8" stroke-linecap="round" stroke-linejoin="round"/>
  <path d="M28 11C34.7 4.2 43.8.8 55.3.8c11.4 0 20.4 3.4 27.1 10.2" stroke="#C0C0C0" stroke-width="4" stroke-linecap="round"/>
  <text x="116" y="48" fill="#F6F7F8" font-family="Cinzel, Georgia, serif" font-size="25" font-weight="800" letter-spacing="0">VIKINGS</text>
  <text x="117" y="76" fill="#C0C0C0" font-family="Inter, Arial, sans-serif" font-size="18" font-weight="700" letter-spacing="5">CAR CARE</text>
  <path d="M117 88h210" stroke="url(#line)" stroke-width="2"/>
  <path d="M333 87c10-5 17-13 21-24 2 11 9 19 20 24-13 1-20 5-21 15-1-10-8-14-20-15Z" fill="#C1121F"/>
  <defs>
    <linearGradient id="shield" x1="18" y1="9" x2="89" y2="91" gradientUnits="userSpaceOnUse">
      <stop stop-color="#2D2D2D"/>
      <stop offset="0.5" stop-color="#080808"/>
      <stop offset="1" stop-color="#444"/>
    </linearGradient>
    <linearGradient id="line" x1="117" y1="88" x2="327" y2="88" gradientUnits="userSpaceOnUse">
      <stop stop-color="#C1121F"/>
      <stop offset="0.52" stop-color="#C0C0C0"/>
      <stop offset="1" stop-color="#C1121F" stop-opacity="0"/>
    </linearGradient>
  </defs>
</svg>
